<?xml version="1.0" encoding="utf-8"?>
<!-- Generator: Adobe Illustrator 16.0.3, SVG Export Plug-In . SVG Version: 6.00 Build 0)  -->
<!DOCTYPE svg PUBLIC "-//W3C//DTD SVG 1.1//EN" "http://www.w3.org/Graphics/SVG/1.1/DTD/svg11.dtd">
<svg version="1.1" xmlns="http://www.w3.org/2000/svg" xmlns:xlink="http://www.w3.org/1999/xlink" x="0px" y="0px" width="512px"
	 height="512px" viewBox="0 0 512 512" enable-background="new 0 0 512 512" xml:space="preserve">
<g id="Layer_2">
	<g>
		<linearGradient id="SVGID_1_" gradientUnits="userSpaceOnUse" x1="263.582" y1="352.4082" x2="370.7002" y2="352.4082">
			<stop  offset="0" style="stop-color:#F3AB20"/>
			<stop  offset="1" style="stop-color:#EB3027"/>
		</linearGradient>
		<path fill="url(#SVGID_1_)" d="M368.201,294.166c0,0,0.167,29.334-51.333,59.667s-57.667,39.166-51.167,51.833
			s55.001,0,73.834-24.5S377.701,327.667,368.201,294.166z"/>
		<linearGradient id="SVGID_2_" gradientUnits="userSpaceOnUse" x1="193.106" y1="308.416" x2="353.2617" y2="308.416">
			<stop  offset="0" style="stop-color:#F3AB20"/>
			<stop  offset="1" style="stop-color:#EB3027"/>
		</linearGradient>
		<path fill="url(#SVGID_2_)" d="M328.785,204.833c0,0,13.751,15.5-68.583,71.5C177.868,332.333,175.535,396,230.201,412
			c0,0-14.906-47.667,33.381-76C311.868,307.666,394.702,265.666,328.785,204.833z"/>
		<linearGradient id="SVGID_3_" gradientUnits="userSpaceOnUse" x1="141.3003" y1="231.5" x2="299.6895" y2="231.5">
			<stop  offset="0" style="stop-color:#F3AB20"/>
			<stop  offset="1" style="stop-color:#EB3027"/>
		</linearGradient>
		<path fill="url(#SVGID_3_)" d="M249.868,100c0,0,24,18.666-58.333,104.833C109.201,291,149.534,350.667,163.868,363
			c0,0-10.667-63.333,86.667-137C347.868,152.333,274.868,114.333,249.868,100z"/>
	</g>
</g>
<g id="Layer_4" display="none">
	<linearGradient id="SVGID_4_" gradientUnits="userSpaceOnUse" x1="54" y1="256" x2="458" y2="256">
		<stop  offset="0" style="stop-color:#F3AB20"/>
		<stop  offset="1" style="stop-color:#EB3027"/>
	</linearGradient>
	
		<circle display="inline" fill="none" stroke="url(#SVGID_4_)" stroke-width="11" stroke-miterlimit="10" cx="256" cy="256" r="196.5"/>
</g>
<g id="Layer_5">
	<linearGradient id="SVGID_5_" gradientUnits="userSpaceOnUse" x1="65.5" y1="256" x2="446.5" y2="256">
		<stop  offset="0" style="stop-color:#F3AB20"/>
		<stop  offset="1" style="stop-color:#EB3027"/>
	</linearGradient>
	<rect x="71" y="71" fill="none" stroke="url(#SVGID_5_)" stroke-width="11" stroke-miterlimit="10" width="370" height="370"/>
</g>
</svg>
